<svg viewBox="0 0 16 16" width="16" height="16" xmlns="http://www.w3.org/2000/svg" xmlns:xlink="http://www.w3.org/1999/xlink" data-icon="LanguagesSmall" data-icon-id=":R135daqjalalalb96:" aria-hidden="true"  fill="white" role="img"><path fill="currentColor" fill-rule="evenodd" d="M10.77 5.33 10.5 6 9.34 8.94l-.57 1.44L7.33 14h1.78l.73-1.97h3.58l.74 1.97H16l-3.43-8.67zm-.15 4.6-.24.63h2.51l-1.26-3.35zm-1.1-5.09.1-.19h-3.2V2h-1.5v2.65H.55V6h3.77A11 11 0 0 1 0 10.43c.33.28.81.8 1.05 1.16 1.5-.91 2.85-2.36 3.88-4.02v5.1h1.49V7.52q .6 .95 1 .8l .57-1 .2-.2a .9 .9 0 0 .9 .9c .08 .08 .2 .2 .28 .28l-.08-.08c-.08-.08-.2-.2-.28-.28l-.44-.44c-.06-.06-.06-.06 -.06 -.06l -.44 -.44c -.06 -.06 -.06 -.06 -.06 -.06l -.44 -.44c -.06 -.06 -.06 -.06 -.06 -.06l -(.4) -(.4)c -(.2) -(.2) -(.2) -(.2) -(.2) -(.2)l (.7) (.7)c (.7) (.7) (.7) (.7) (.7) (.7)c (.7) (.7) (.7) (.7) (.7) (.7)c (, ) (, ) (, ) (, ) (, ) (, )c (, ) (, ) (, ) (, ) (, ) (, )c (, ) (, ) (, ) (, ) (, ) (, )" clip-rule="evenodd"></path></svg>